<?xml version="1.0" encoding="utf-8"?>

<!-- Uploaded to: SVG Repo, www.svgrepo.com, Generator: SVG Repo Mixer Tools -->
<svg version="1.1" id="Icons" xmlns="http://www.w3.org/2000/svg" xmlns:xlink="http://www.w3.org/1999/xlink" 
	 viewBox="0 0 32 32" xml:space="preserve">
<style type="text/css">
	.st0{fill:none;stroke:#000000;stroke-width:2;stroke-linecap:round;stroke-linejoin:round;stroke-miterlimit:10;}
</style>
<path d="M30.9,12.7C30.8,12.3,30.4,12,30,12h-9.3l-3.8-9.7C16.8,2,16.4,1.7,16,1.7S15.2,2,15.1,2.3L11.3,12H2
	c-0.4,0-0.8,0.3-0.9,0.7c-0.1,0.4,0,0.9,0.3,1.1L9,19.5l-2.6,9.2c-0.1,0.4,0,0.8,0.4,1.1c0.3,0.2,0.8,0.3,1.1,0l8.1-5.3l8.1,5.3
	c0.2,0.1,0.4,0.2,0.6,0.2c0.2,0,0.4-0.1,0.6-0.2c0.3-0.2,0.5-0.7,0.4-1.1L23,19.5l7.6-5.7C30.9,13.5,31.1,13.1,30.9,12.7z M15,18
	c0,0.6-0.4,1-1,1s-1-0.4-1-1v-2c0-0.6,0.4-1,1-1s1,0.4,1,1V18z M19,18c0,0.6-0.4,1-1,1s-1-0.4-1-1v-2c0-0.6,0.4-1,1-1s1,0.4,1,1V18z
	"/>
</svg>